<mxfile host="app.diagrams.net" agent="Mozilla/5.0 (Macintosh; Intel Mac OS X 10_15_7) AppleWebKit/537.36 (KHTML, like Gecko) Chrome/128.0.0.0 Safari/537.36" version="24.8.4">
  <diagram name="Page-1" id="JQiygV9I6Q0KCLgeaCXE">
    <mxGraphModel dx="1735" dy="2124" grid="1" gridSize="10" guides="1" tooltips="1" connect="1" arrows="1" fold="1" page="1" pageScale="1" pageWidth="850" pageHeight="1100" math="0" shadow="0">
      <root>
        <mxCell id="0" />
        <mxCell id="1" parent="0" />
        <mxCell id="PzfFJpDjV_QptsQWnbEd-25" value="" style="whiteSpace=wrap;html=1;aspect=fixed;" vertex="1" parent="1">
          <mxGeometry x="720" y="-48.75" width="280.5" height="280.5" as="geometry" />
        </mxCell>
        <mxCell id="PzfFJpDjV_QptsQWnbEd-1" value="" style="sketch=0;outlineConnect=0;fontColor=#232F3E;gradientColor=none;fillColor=#232F3D;strokeColor=none;dashed=0;verticalLabelPosition=bottom;verticalAlign=top;align=center;html=1;fontSize=12;fontStyle=0;aspect=fixed;pointerEvents=1;shape=mxgraph.aws4.user;" vertex="1" parent="1">
          <mxGeometry x="40" y="42.75" width="128" height="128" as="geometry" />
        </mxCell>
        <mxCell id="PzfFJpDjV_QptsQWnbEd-107" style="edgeStyle=orthogonalEdgeStyle;rounded=0;orthogonalLoop=1;jettySize=auto;html=1;" edge="1" parent="1" source="PzfFJpDjV_QptsQWnbEd-3">
          <mxGeometry relative="1" as="geometry">
            <mxPoint x="360" y="86.25" as="targetPoint" />
          </mxGeometry>
        </mxCell>
        <mxCell id="PzfFJpDjV_QptsQWnbEd-3" value="Form" style="html=1;whiteSpace=wrap;strokeColor=none;fillColor=#0079D6;labelPosition=center;verticalLabelPosition=middle;verticalAlign=top;align=center;fontSize=12;outlineConnect=0;spacingTop=-6;fontColor=#FFFFFF;sketch=0;shape=mxgraph.sitemap.form;" vertex="1" parent="1">
          <mxGeometry x="190" y="51.25" width="120" height="70" as="geometry" />
        </mxCell>
        <mxCell id="PzfFJpDjV_QptsQWnbEd-4" value="Goal: House&lt;div&gt;Available_Money:2000&lt;/div&gt;&lt;div&gt;Time Horizon: 5 Years&lt;/div&gt;" style="text;html=1;align=center;verticalAlign=middle;whiteSpace=wrap;rounded=0;" vertex="1" parent="1">
          <mxGeometry x="190" y="112" width="120" height="70" as="geometry" />
        </mxCell>
        <mxCell id="PzfFJpDjV_QptsQWnbEd-5" value="" style="whiteSpace=wrap;html=1;aspect=fixed;" vertex="1" parent="1">
          <mxGeometry x="370" y="-48.75" width="280.5" height="280.5" as="geometry" />
        </mxCell>
        <mxCell id="PzfFJpDjV_QptsQWnbEd-10" value="&lt;font style=&quot;font-size: 15px;&quot;&gt;Portfolio Optimizer&lt;/font&gt;" style="text;html=1;align=center;verticalAlign=middle;whiteSpace=wrap;rounded=0;" vertex="1" parent="1">
          <mxGeometry x="410.25" y="-48.75" width="130" height="30" as="geometry" />
        </mxCell>
        <mxCell id="PzfFJpDjV_QptsQWnbEd-15" value="" style="sketch=0;outlineConnect=0;fontColor=#232F3E;gradientColor=none;fillColor=#01A88D;strokeColor=none;dashed=0;verticalLabelPosition=bottom;verticalAlign=top;align=center;html=1;fontSize=12;fontStyle=0;aspect=fixed;pointerEvents=1;shape=mxgraph.aws4.sagemaker_model;" vertex="1" parent="1">
          <mxGeometry x="471.25" y="290" width="78" height="78" as="geometry" />
        </mxCell>
        <mxCell id="PzfFJpDjV_QptsQWnbEd-16" value="" style="outlineConnect=0;dashed=0;verticalLabelPosition=bottom;verticalAlign=top;align=center;html=1;shape=mxgraph.aws3.generic_database;fillColor=#7D7C7C;gradientColor=none;" vertex="1" parent="1">
          <mxGeometry x="920" y="132" width="38.75" height="48" as="geometry" />
        </mxCell>
        <mxCell id="PzfFJpDjV_QptsQWnbEd-19" value="&lt;font style=&quot;font-size: 15px;&quot;&gt;Company 10K Reports&lt;/font&gt;" style="text;html=1;align=center;verticalAlign=middle;whiteSpace=wrap;rounded=0;" vertex="1" parent="1">
          <mxGeometry x="870.5" y="190.75" width="130" height="30" as="geometry" />
        </mxCell>
        <mxCell id="PzfFJpDjV_QptsQWnbEd-20" value="" style="sketch=0;outlineConnect=0;fontColor=#232F3E;gradientColor=none;fillColor=#DD344C;strokeColor=none;dashed=0;verticalLabelPosition=bottom;verticalAlign=top;align=center;html=1;fontSize=12;fontStyle=0;aspect=fixed;pointerEvents=1;shape=mxgraph.aws4.simulation;" vertex="1" parent="1">
          <mxGeometry x="479.15999999999997" y="-8.25" width="62.16" height="51" as="geometry" />
        </mxCell>
        <mxCell id="PzfFJpDjV_QptsQWnbEd-23" value="" style="verticalLabelPosition=bottom;html=1;verticalAlign=top;align=center;strokeColor=none;fillColor=#00BEF2;shape=mxgraph.azure.file;pointerEvents=1;" vertex="1" parent="1">
          <mxGeometry x="500" y="148.25" width="33.45" height="51.75" as="geometry" />
        </mxCell>
        <mxCell id="PzfFJpDjV_QptsQWnbEd-24" value="" style="sketch=0;points=[[0,0,0],[0.25,0,0],[0.5,0,0],[0.75,0,0],[1,0,0],[0,1,0],[0.25,1,0],[0.5,1,0],[0.75,1,0],[1,1,0],[0,0.25,0],[0,0.5,0],[0,0.75,0],[1,0.25,0],[1,0.5,0],[1,0.75,0]];points=[[0,0,0],[0.25,0,0],[0.5,0,0],[0.75,0,0],[1,0,0],[0,1,0],[0.25,1,0],[0.5,1,0],[0.75,1,0],[1,1,0],[0,0.25,0],[0,0.5,0],[0,0.75,0],[1,0.25,0],[1,0.5,0],[1,0.75,0]];outlineConnect=0;fontColor=#232F3E;fillColor=#E7157B;strokeColor=#ffffff;dashed=0;verticalLabelPosition=bottom;verticalAlign=top;align=center;html=1;fontSize=12;fontStyle=0;aspect=fixed;shape=mxgraph.aws4.resourceIcon;resIcon=mxgraph.aws4.chatbot;" vertex="1" parent="1">
          <mxGeometry x="911.52" y="57.05" width="54.95" height="54.95" as="geometry" />
        </mxCell>
        <mxCell id="PzfFJpDjV_QptsQWnbEd-26" value="&lt;span style=&quot;font-size: 15px;&quot;&gt;Chat&lt;/span&gt;" style="text;html=1;align=center;verticalAlign=middle;whiteSpace=wrap;rounded=0;" vertex="1" parent="1">
          <mxGeometry x="795.25" y="-48.75" width="130" height="30" as="geometry" />
        </mxCell>
        <mxCell id="PzfFJpDjV_QptsQWnbEd-29" value="" style="whiteSpace=wrap;html=1;aspect=fixed;" vertex="1" parent="1">
          <mxGeometry x="1060" y="-48.75" width="290" height="290" as="geometry" />
        </mxCell>
        <mxCell id="PzfFJpDjV_QptsQWnbEd-30" value="&lt;font style=&quot;font-size: 15px;&quot;&gt;Instrument Scanner&lt;/font&gt;" style="text;html=1;align=center;verticalAlign=middle;whiteSpace=wrap;rounded=0;" vertex="1" parent="1">
          <mxGeometry x="1135.25" y="-46.25" width="130" height="30" as="geometry" />
        </mxCell>
        <mxCell id="PzfFJpDjV_QptsQWnbEd-33" value="" style="whiteSpace=wrap;html=1;aspect=fixed;" vertex="1" parent="1">
          <mxGeometry x="1387.5" y="-48.75" width="280.5" height="280.5" as="geometry" />
        </mxCell>
        <mxCell id="PzfFJpDjV_QptsQWnbEd-34" value="&lt;font style=&quot;font-size: 15px;&quot;&gt;Instrument History&lt;/font&gt;" style="text;html=1;align=center;verticalAlign=middle;whiteSpace=wrap;rounded=0;" vertex="1" parent="1">
          <mxGeometry x="1462.75" y="-46.25" width="130" height="30" as="geometry" />
        </mxCell>
        <mxCell id="PzfFJpDjV_QptsQWnbEd-47" value="" style="html=1;verticalLabelPosition=bottom;align=center;labelBackgroundColor=#ffffff;verticalAlign=top;strokeWidth=2;strokeColor=#0080F0;shadow=0;dashed=0;shape=mxgraph.ios7.icons.message;" vertex="1" parent="1">
          <mxGeometry x="740" y="60.5" width="120" height="51.5" as="geometry" />
        </mxCell>
        <mxCell id="PzfFJpDjV_QptsQWnbEd-50" style="edgeStyle=orthogonalEdgeStyle;rounded=0;orthogonalLoop=1;jettySize=auto;html=1;exitX=0.5;exitY=1;exitDx=0;exitDy=0;exitPerimeter=0;entryX=0.5;entryY=0.015;entryDx=0;entryDy=0;entryPerimeter=0;" edge="1" parent="1" source="PzfFJpDjV_QptsQWnbEd-24" target="PzfFJpDjV_QptsQWnbEd-16">
          <mxGeometry relative="1" as="geometry" />
        </mxCell>
        <mxCell id="PzfFJpDjV_QptsQWnbEd-51" value="What is Apple&#39;s total revenue for 2023?" style="text;html=1;align=center;verticalAlign=middle;whiteSpace=wrap;rounded=0;" vertex="1" parent="1">
          <mxGeometry x="740" y="61.75" width="118" height="42" as="geometry" />
        </mxCell>
        <mxCell id="PzfFJpDjV_QptsQWnbEd-54" style="edgeStyle=orthogonalEdgeStyle;rounded=0;orthogonalLoop=1;jettySize=auto;html=1;exitX=1;exitY=0.5;exitDx=0;exitDy=0;" edge="1" parent="1" source="PzfFJpDjV_QptsQWnbEd-51">
          <mxGeometry relative="1" as="geometry">
            <mxPoint x="894" y="83" as="targetPoint" />
          </mxGeometry>
        </mxCell>
        <mxCell id="PzfFJpDjV_QptsQWnbEd-55" value="&lt;font style=&quot;font-size: 15px;&quot;&gt;Investment Thesis&lt;/font&gt;" style="text;html=1;align=center;verticalAlign=middle;whiteSpace=wrap;rounded=0;" vertex="1" parent="1">
          <mxGeometry x="437.65" y="200" width="158.15" height="30.75" as="geometry" />
        </mxCell>
        <mxCell id="PzfFJpDjV_QptsQWnbEd-58" value="" style="dashed=0;outlineConnect=0;html=1;align=center;labelPosition=center;verticalLabelPosition=bottom;verticalAlign=top;shape=mxgraph.weblogos.yahoo_2;fillColor=#65106E;strokeColor=none" vertex="1" parent="1">
          <mxGeometry x="600" y="71.35000000000001" width="38" height="38.35" as="geometry" />
        </mxCell>
        <mxCell id="PzfFJpDjV_QptsQWnbEd-59" value="" style="sketch=0;outlineConnect=0;fontColor=#232F3E;gradientColor=none;fillColor=#232F3D;strokeColor=none;dashed=0;verticalLabelPosition=bottom;verticalAlign=top;align=center;html=1;fontSize=12;fontStyle=0;aspect=fixed;pointerEvents=1;shape=mxgraph.aws4.data_table;" vertex="1" parent="1">
          <mxGeometry x="1250" y="131.75" width="78" height="59" as="geometry" />
        </mxCell>
        <mxCell id="PzfFJpDjV_QptsQWnbEd-61" value="" style="sketch=0;outlineConnect=0;fontColor=#232F3E;gradientColor=none;fillColor=#01A88D;strokeColor=none;dashed=0;verticalLabelPosition=bottom;verticalAlign=top;align=center;html=1;fontSize=12;fontStyle=0;aspect=fixed;pointerEvents=1;shape=mxgraph.aws4.sagemaker_model;" vertex="1" parent="1">
          <mxGeometry x="1498.33" y="290" width="78" height="78" as="geometry" />
        </mxCell>
        <mxCell id="PzfFJpDjV_QptsQWnbEd-62" value="" style="sketch=0;pointerEvents=1;shadow=0;dashed=0;html=1;strokeColor=none;labelPosition=center;verticalLabelPosition=bottom;verticalAlign=top;align=center;fillColor=#505050;shape=mxgraph.mscae.intune.reports" vertex="1" parent="1">
          <mxGeometry x="454.82000000000005" y="450" width="110.84" height="100" as="geometry" />
        </mxCell>
        <mxCell id="PzfFJpDjV_QptsQWnbEd-93" style="edgeStyle=orthogonalEdgeStyle;rounded=0;orthogonalLoop=1;jettySize=auto;html=1;" edge="1" parent="1" source="PzfFJpDjV_QptsQWnbEd-64">
          <mxGeometry relative="1" as="geometry">
            <mxPoint x="1260" y="78" as="targetPoint" />
          </mxGeometry>
        </mxCell>
        <mxCell id="PzfFJpDjV_QptsQWnbEd-64" value="fn" style="shape=mxgraph.electrical.abstract.function;html=1;shadow=0;dashed=0;align=center;strokeWidth=1;fontSize=24" vertex="1" parent="1">
          <mxGeometry x="1180" y="55.05" width="40" height="44.95" as="geometry" />
        </mxCell>
        <mxCell id="PzfFJpDjV_QptsQWnbEd-65" value="" style="shape=image;html=1;verticalAlign=top;verticalLabelPosition=bottom;labelBackgroundColor=#ffffff;imageAspect=0;aspect=fixed;image=https://cdn4.iconfinder.com/data/icons/success-filloutline/64/chart-analysis-analytics-data_analytics-pie_1-128.png" vertex="1" parent="1">
          <mxGeometry x="1102" y="131.75" width="78" height="78" as="geometry" />
        </mxCell>
        <mxCell id="PzfFJpDjV_QptsQWnbEd-96" style="edgeStyle=orthogonalEdgeStyle;rounded=0;orthogonalLoop=1;jettySize=auto;html=1;" edge="1" parent="1" source="PzfFJpDjV_QptsQWnbEd-66">
          <mxGeometry relative="1" as="geometry">
            <mxPoint x="1295" y="130" as="targetPoint" />
          </mxGeometry>
        </mxCell>
        <mxCell id="PzfFJpDjV_QptsQWnbEd-66" value="" style="dashed=0;outlineConnect=0;html=1;align=center;labelPosition=center;verticalLabelPosition=bottom;verticalAlign=top;shape=mxgraph.weblogos.yahoo_2;fillColor=#65106E;strokeColor=none" vertex="1" parent="1">
          <mxGeometry x="1275" y="57.05" width="40" height="34.95" as="geometry" />
        </mxCell>
        <mxCell id="PzfFJpDjV_QptsQWnbEd-68" value="" style="shape=image;html=1;verticalAlign=top;verticalLabelPosition=bottom;labelBackgroundColor=#ffffff;imageAspect=0;aspect=fixed;image=https://cdn3.iconfinder.com/data/icons/flat-office-icons-1/140/Artboard_1-8-128.png" vertex="1" parent="1">
          <mxGeometry x="1091.55" y="57.05" width="43.7" height="43.7" as="geometry" />
        </mxCell>
        <mxCell id="PzfFJpDjV_QptsQWnbEd-72" value="" style="sketch=0;pointerEvents=1;shadow=0;dashed=0;html=1;strokeColor=none;labelPosition=center;verticalLabelPosition=bottom;verticalAlign=top;align=center;fillColor=#505050;shape=mxgraph.mscae.intune.reports" vertex="1" parent="1">
          <mxGeometry x="1481.9100000000005" y="450" width="110.84" height="100" as="geometry" />
        </mxCell>
        <mxCell id="PzfFJpDjV_QptsQWnbEd-90" style="edgeStyle=orthogonalEdgeStyle;rounded=0;orthogonalLoop=1;jettySize=auto;html=1;exitX=0.5;exitY=0;exitDx=0;exitDy=0;exitPerimeter=0;" edge="1" parent="1" source="PzfFJpDjV_QptsQWnbEd-75">
          <mxGeometry relative="1" as="geometry">
            <mxPoint x="517" y="50" as="targetPoint" />
          </mxGeometry>
        </mxCell>
        <mxCell id="PzfFJpDjV_QptsQWnbEd-75" value="fn" style="shape=mxgraph.electrical.abstract.function;html=1;shadow=0;dashed=0;align=center;strokeWidth=1;fontSize=24" vertex="1" parent="1">
          <mxGeometry x="500" y="73.64999999999999" width="33.45" height="33.75" as="geometry" />
        </mxCell>
        <mxCell id="PzfFJpDjV_QptsQWnbEd-78" style="edgeStyle=orthogonalEdgeStyle;rounded=0;orthogonalLoop=1;jettySize=auto;html=1;exitX=0.5;exitY=0;exitDx=0;exitDy=0;exitPerimeter=0;entryX=0.5;entryY=1;entryDx=0;entryDy=0;entryPerimeter=0;" edge="1" parent="1" source="PzfFJpDjV_QptsQWnbEd-23" target="PzfFJpDjV_QptsQWnbEd-75">
          <mxGeometry relative="1" as="geometry" />
        </mxCell>
        <mxCell id="PzfFJpDjV_QptsQWnbEd-91" style="edgeStyle=orthogonalEdgeStyle;rounded=0;orthogonalLoop=1;jettySize=auto;html=1;" edge="1" parent="1" source="PzfFJpDjV_QptsQWnbEd-58">
          <mxGeometry relative="1" as="geometry">
            <mxPoint x="550" y="91" as="targetPoint" />
          </mxGeometry>
        </mxCell>
        <mxCell id="PzfFJpDjV_QptsQWnbEd-92" style="edgeStyle=orthogonalEdgeStyle;rounded=0;orthogonalLoop=1;jettySize=auto;html=1;" edge="1" parent="1" source="PzfFJpDjV_QptsQWnbEd-68">
          <mxGeometry relative="1" as="geometry">
            <mxPoint x="1170" y="78" as="targetPoint" />
          </mxGeometry>
        </mxCell>
        <mxCell id="PzfFJpDjV_QptsQWnbEd-97" style="edgeStyle=orthogonalEdgeStyle;rounded=0;orthogonalLoop=1;jettySize=auto;html=1;" edge="1" parent="1" source="PzfFJpDjV_QptsQWnbEd-59">
          <mxGeometry relative="1" as="geometry">
            <mxPoint x="1200" y="161" as="targetPoint" />
          </mxGeometry>
        </mxCell>
        <mxCell id="PzfFJpDjV_QptsQWnbEd-98" value="LlamaIndex" style="text;html=1;align=center;verticalAlign=middle;whiteSpace=wrap;rounded=0;" vertex="1" parent="1">
          <mxGeometry x="905.5" y="21.25" width="60" height="30" as="geometry" />
        </mxCell>
        <mxCell id="PzfFJpDjV_QptsQWnbEd-99" value="Yfinance" style="text;html=1;align=center;verticalAlign=middle;whiteSpace=wrap;rounded=0;" vertex="1" parent="1">
          <mxGeometry x="578" y="118.25" width="60" height="30" as="geometry" />
        </mxCell>
        <mxCell id="PzfFJpDjV_QptsQWnbEd-100" value="&lt;font style=&quot;font-size: 15px;&quot;&gt;Dataframe&lt;/font&gt;" style="text;html=1;align=center;verticalAlign=middle;whiteSpace=wrap;rounded=0;" vertex="1" parent="1">
          <mxGeometry x="1255" y="200" width="60" height="30" as="geometry" />
        </mxCell>
        <mxCell id="PzfFJpDjV_QptsQWnbEd-101" value="&lt;font style=&quot;font-size: 15px;&quot;&gt;Analysis&lt;/font&gt;" style="text;html=1;align=center;verticalAlign=middle;whiteSpace=wrap;rounded=0;" vertex="1" parent="1">
          <mxGeometry x="1111" y="200" width="60" height="30" as="geometry" />
        </mxCell>
        <mxCell id="PzfFJpDjV_QptsQWnbEd-117" style="edgeStyle=orthogonalEdgeStyle;rounded=0;orthogonalLoop=1;jettySize=auto;html=1;" edge="1" parent="1" source="PzfFJpDjV_QptsQWnbEd-102" target="PzfFJpDjV_QptsQWnbEd-15">
          <mxGeometry relative="1" as="geometry">
            <mxPoint x="425" y="320" as="targetPoint" />
            <Array as="points">
              <mxPoint x="420" y="329" />
            </Array>
          </mxGeometry>
        </mxCell>
        <mxCell id="PzfFJpDjV_QptsQWnbEd-102" value="Portfolio" style="html=1;whiteSpace=wrap;strokeColor=none;fillColor=#0079D6;labelPosition=center;verticalLabelPosition=middle;verticalAlign=top;align=center;fontSize=12;outlineConnect=0;spacingTop=-6;fontColor=#FFFFFF;sketch=0;shape=mxgraph.sitemap.portfolio;" vertex="1" parent="1">
          <mxGeometry x="390" y="56.150000000000006" width="70" height="68.75" as="geometry" />
        </mxCell>
        <mxCell id="PzfFJpDjV_QptsQWnbEd-103" style="edgeStyle=orthogonalEdgeStyle;rounded=0;orthogonalLoop=1;jettySize=auto;html=1;entryX=1;entryY=0.5;entryDx=0;entryDy=0;entryPerimeter=0;" edge="1" parent="1" source="PzfFJpDjV_QptsQWnbEd-75" target="PzfFJpDjV_QptsQWnbEd-102">
          <mxGeometry relative="1" as="geometry" />
        </mxCell>
        <mxCell id="PzfFJpDjV_QptsQWnbEd-110" value="Nvidia NIM (Llama 405B)" style="text;html=1;align=center;verticalAlign=middle;whiteSpace=wrap;rounded=0;" vertex="1" parent="1">
          <mxGeometry x="445.25" y="380" width="130" height="30" as="geometry" />
        </mxCell>
        <mxCell id="PzfFJpDjV_QptsQWnbEd-111" value="Nvidia NIM (Llama 405B)" style="text;html=1;align=center;verticalAlign=middle;whiteSpace=wrap;rounded=0;" vertex="1" parent="1">
          <mxGeometry x="1472.33" y="380" width="130" height="30" as="geometry" />
        </mxCell>
        <mxCell id="PzfFJpDjV_QptsQWnbEd-112" value="Portfolio Summarization&lt;div&gt;&lt;br&gt;&lt;/div&gt;" style="text;html=1;align=center;verticalAlign=middle;whiteSpace=wrap;rounded=0;" vertex="1" parent="1">
          <mxGeometry x="437.65" y="570" width="156.55" height="30" as="geometry" />
        </mxCell>
        <mxCell id="PzfFJpDjV_QptsQWnbEd-113" value="&lt;div&gt;Strategic Options Play&lt;/div&gt;" style="text;html=1;align=center;verticalAlign=middle;whiteSpace=wrap;rounded=0;" vertex="1" parent="1">
          <mxGeometry x="1462.75" y="570" width="156.55" height="30" as="geometry" />
        </mxCell>
        <mxCell id="PzfFJpDjV_QptsQWnbEd-115" style="edgeStyle=orthogonalEdgeStyle;rounded=0;orthogonalLoop=1;jettySize=auto;html=1;entryX=0.5;entryY=0;entryDx=0;entryDy=0;entryPerimeter=0;" edge="1" parent="1" source="PzfFJpDjV_QptsQWnbEd-111" target="PzfFJpDjV_QptsQWnbEd-72">
          <mxGeometry relative="1" as="geometry" />
        </mxCell>
        <mxCell id="PzfFJpDjV_QptsQWnbEd-116" style="edgeStyle=orthogonalEdgeStyle;rounded=0;orthogonalLoop=1;jettySize=auto;html=1;entryX=0.5;entryY=0;entryDx=0;entryDy=0;entryPerimeter=0;" edge="1" parent="1" source="PzfFJpDjV_QptsQWnbEd-110" target="PzfFJpDjV_QptsQWnbEd-62">
          <mxGeometry relative="1" as="geometry" />
        </mxCell>
        <mxCell id="PzfFJpDjV_QptsQWnbEd-132" style="edgeStyle=orthogonalEdgeStyle;rounded=0;orthogonalLoop=1;jettySize=auto;html=1;" edge="1" parent="1" source="PzfFJpDjV_QptsQWnbEd-120">
          <mxGeometry relative="1" as="geometry">
            <mxPoint x="1580" y="79" as="targetPoint" />
          </mxGeometry>
        </mxCell>
        <mxCell id="PzfFJpDjV_QptsQWnbEd-120" value="fn" style="shape=mxgraph.electrical.abstract.function;html=1;shadow=0;dashed=0;align=center;strokeWidth=1;fontSize=24" vertex="1" parent="1">
          <mxGeometry x="1507.75" y="56.430000000000014" width="40" height="44.95" as="geometry" />
        </mxCell>
        <mxCell id="PzfFJpDjV_QptsQWnbEd-130" style="edgeStyle=orthogonalEdgeStyle;rounded=0;orthogonalLoop=1;jettySize=auto;html=1;" edge="1" parent="1" source="PzfFJpDjV_QptsQWnbEd-121" target="PzfFJpDjV_QptsQWnbEd-124">
          <mxGeometry relative="1" as="geometry" />
        </mxCell>
        <mxCell id="PzfFJpDjV_QptsQWnbEd-121" value="" style="dashed=0;outlineConnect=0;html=1;align=center;labelPosition=center;verticalLabelPosition=bottom;verticalAlign=top;shape=mxgraph.weblogos.yahoo_2;fillColor=#65106E;strokeColor=none" vertex="1" parent="1">
          <mxGeometry x="1592.75" y="57.05000000000001" width="40" height="34.95" as="geometry" />
        </mxCell>
        <mxCell id="PzfFJpDjV_QptsQWnbEd-122" value="" style="shape=image;html=1;verticalAlign=top;verticalLabelPosition=bottom;labelBackgroundColor=#ffffff;imageAspect=0;aspect=fixed;image=https://cdn3.iconfinder.com/data/icons/flat-office-icons-1/140/Artboard_1-8-128.png" vertex="1" parent="1">
          <mxGeometry x="1426.0600000000002" y="56.3" width="43.7" height="43.7" as="geometry" />
        </mxCell>
        <mxCell id="PzfFJpDjV_QptsQWnbEd-129" style="edgeStyle=orthogonalEdgeStyle;rounded=0;orthogonalLoop=1;jettySize=auto;html=1;" edge="1" parent="1" source="PzfFJpDjV_QptsQWnbEd-124">
          <mxGeometry relative="1" as="geometry">
            <mxPoint x="1510" y="169" as="targetPoint" />
          </mxGeometry>
        </mxCell>
        <mxCell id="PzfFJpDjV_QptsQWnbEd-124" value="" style="sketch=0;outlineConnect=0;fontColor=#232F3E;gradientColor=none;fillColor=#232F3D;strokeColor=none;dashed=0;verticalLabelPosition=bottom;verticalAlign=top;align=center;html=1;fontSize=12;fontStyle=0;aspect=fixed;pointerEvents=1;shape=mxgraph.aws4.data_table;" vertex="1" parent="1">
          <mxGeometry x="1571.59" y="137.72" width="82.33" height="62.28" as="geometry" />
        </mxCell>
        <mxCell id="PzfFJpDjV_QptsQWnbEd-125" value="" style="shape=image;html=1;verticalAlign=top;verticalLabelPosition=bottom;labelBackgroundColor=#ffffff;imageAspect=0;aspect=fixed;image=https://cdn0.iconfinder.com/data/icons/ie_Financial_set/128/20.png" vertex="1" parent="1">
          <mxGeometry x="1413.91" y="140.13" width="68" height="68" as="geometry" />
        </mxCell>
        <mxCell id="PzfFJpDjV_QptsQWnbEd-131" style="edgeStyle=orthogonalEdgeStyle;rounded=0;orthogonalLoop=1;jettySize=auto;html=1;" edge="1" parent="1" source="PzfFJpDjV_QptsQWnbEd-122">
          <mxGeometry relative="1" as="geometry">
            <mxPoint x="1500" y="78" as="targetPoint" />
          </mxGeometry>
        </mxCell>
        <mxCell id="PzfFJpDjV_QptsQWnbEd-133" style="edgeStyle=orthogonalEdgeStyle;rounded=0;orthogonalLoop=1;jettySize=auto;html=1;" edge="1" parent="1" source="PzfFJpDjV_QptsQWnbEd-124" target="PzfFJpDjV_QptsQWnbEd-61">
          <mxGeometry relative="1" as="geometry">
            <Array as="points">
              <mxPoint x="1680" y="169" />
              <mxPoint x="1680" y="329" />
            </Array>
          </mxGeometry>
        </mxCell>
      </root>
    </mxGraphModel>
  </diagram>
</mxfile>
